<svg width="24" height="19" viewBox="0 0 24 19" fill="none" xmlns="http://www.w3.org/2000/svg">
<path d="M23.3363 10.0604L19.0163 8.39043C18.8625 8.33105 18.5438 8.25313 18.1838 8.39043L13.8638 10.0604C13.4625 10.2162 13.2 10.5799 13.2 10.9844C13.2 15.1258 15.7763 17.9906 18.1838 18.9221C18.5438 19.0594 18.8588 18.9814 19.0163 18.9221C20.94 18.1799 24 15.6045 24 10.9844C24 10.5799 23.7375 10.2162 23.3363 10.0604ZM18.6 17.1594V10.142L22.1813 11.5262C21.9713 14.7584 19.8975 16.5508 18.6 17.1594ZM8.4 9.5C11.0513 9.5 13.2 7.37363 13.2 4.75C13.2 2.12637 11.0513 0 8.4 0C5.74875 0 3.6 2.12637 3.6 4.75C3.6 7.37363 5.74875 9.5 8.4 9.5ZM12 10.9844C12 10.8916 12.03 10.8062 12.0413 10.7172C11.9475 10.7135 11.8575 10.6875 11.76 10.6875H11.1337C10.3013 11.066 9.375 11.2812 8.4 11.2812C7.425 11.2812 6.5025 11.066 5.66625 10.6875H5.04C2.2575 10.6875 0 12.9215 0 15.675V17.2188C0 18.2021 0.80625 19 1.8 19H15C15.255 19 15.4988 18.9443 15.72 18.8516C13.695 17.2596 12 14.5209 12 10.9844Z" fill="#C72D2D"/>
</svg>
